# xmcd CD database file
#
# Track frame offsets:
#	150
#	4565
#	26039
#	28411
#	65791
#	68346
#
# Disc length: 1186 seconds
#
# Revision: 0
# Processed by: cddbd v1.5.1PL2 Copyright (c) Steve Scherf et al.
# Submitted via: CDex 1.51
#
DISCID=4904a006
DTITLE=斎藤誠 - Rebirth Tour 04-05
DYEAR=2005
DGENRE=Blues
TTITLE0=きらめきの街へ
TTITLE1=ゆるして
TTITLE2=ストロークなのだ
TTITLE3=素敵な最後
TTITLE4=アルペジオなのだ
TTITLE5=Waltz In Blue
EXTD=YEAR: 2005
EXTT0=
EXTT1=
EXTT2=
EXTT3=
EXTT4=
EXTT5=
PLAYORDER=
